<?xml version="1.0" encoding="UTF-8" standalone="no"?>
<!DOCTYPE svg PUBLIC "-//W3C//DTD SVG 1.1//EN" "http://www.w3.org/Graphics/SVG/1.1/DTD/svg11.dtd">
<svg version="1.1" xmlns="http://www.w3.org/2000/svg" xmlns:xlink="http://www.w3.org/1999/xlink" preserveAspectRatio="xMidYMid meet" viewBox="0 0 1080 1080" width="1080" height="1080"><defs><path d="M679.08 558.44L679.08 669.55L290.19 669.55L290.19 558.44L679.08 558.44M262.41 502.88C247.13 502.88 234.63 515.38 234.63 530.66C234.63 547.33 234.63 680.66 234.63 697.33C234.63 712.61 247.13 725.11 262.41 725.11C306.86 725.11 662.41 725.11 706.86 725.11C722.13 725.11 734.63 712.61 734.63 697.33C734.63 680.66 734.63 547.33 734.63 530.66C734.63 515.38 722.13 502.88 706.86 502.88C617.97 502.88 306.86 502.88 262.41 502.88ZM304.08 614C304.08 590.94 322.97 572.33 345.75 572.33C368.52 572.33 387.41 590.94 387.41 614C387.41 637.05 368.8 655.66 345.75 655.66C322.97 655.66 304.08 637.05 304.08 614ZM679.08 280.66L679.08 391.77L290.19 391.77L290.19 280.66L679.08 280.66M262.41 225.11C247.13 225.11 234.63 237.61 234.63 252.88C234.63 269.55 234.63 402.88 234.63 419.55C234.63 434.83 247.13 447.33 262.41 447.33C306.86 447.33 662.41 447.33 706.86 447.33C722.13 447.33 734.63 434.83 734.63 419.55C734.63 402.88 734.63 269.55 734.63 252.88C734.63 237.61 722.13 225.11 706.86 225.11C617.97 225.11 306.86 225.11 262.41 225.11ZM304.08 336.22C304.08 313.16 322.97 294.55 345.75 294.55C368.52 294.55 387.41 313.44 387.41 336.22C387.41 359 368.8 377.88 345.75 377.88C322.97 377.88 304.08 359.27 304.08 336.22Z" id="ah32Q11Fy"></path><path d="M300 0L300 300L0 300L0 0L300 0Z" id="auJmu7PLa"></path><path d="M931.35 739.15L930.85 747.3L930.03 755.37L928.9 763.33L927.45 771.19L925.7 778.95L923.65 786.58L921.31 794.1L918.69 801.48L915.79 808.73L912.62 815.83L909.18 822.79L905.48 829.59L901.53 836.23L897.34 842.7L892.91 848.99L888.24 855.11L883.35 861.04L878.23 866.77L872.91 872.3L867.38 877.63L861.64 882.74L855.72 887.63L849.6 892.3L843.3 896.73L836.83 900.93L830.19 904.88L823.39 908.57L816.44 912.01L809.33 915.18L802.09 918.08L794.7 920.71L787.19 923.04L779.55 925.09L771.8 926.84L763.94 928.29L755.97 929.43L747.91 930.25L739.75 930.74L731.52 930.91L723.28 930.74L715.12 930.25L707.06 929.43L699.09 928.29L691.23 926.84L683.48 925.09L675.84 923.04L668.33 920.71L660.94 918.08L653.7 915.18L646.59 912.01L639.64 908.57L632.84 904.88L626.2 900.93L619.73 896.73L613.43 892.3L607.31 887.63L601.39 882.74L595.65 877.63L590.12 872.3L584.8 866.77L579.68 861.04L574.79 855.11L570.12 848.99L565.69 842.7L561.5 836.23L557.55 829.59L553.85 822.79L550.42 815.83L547.24 808.73L544.34 801.48L541.72 794.1L539.38 786.58L537.33 778.95L535.58 771.19L534.13 763.33L533 755.37L532.18 747.3L531.68 739.15L531.52 730.91L531.68 722.67L532.18 714.52L533 706.45L534.13 698.49L535.58 690.62L537.33 682.87L539.38 675.23L541.72 667.72L544.34 660.34L547.24 653.09L550.42 645.99L553.85 639.03L557.55 632.23L561.5 625.59L565.69 619.12L570.12 612.82L574.79 606.71L579.68 600.78L584.8 595.05L590.12 589.52L595.65 584.19L601.39 579.08L607.31 574.18L613.43 569.52L619.73 565.09L626.2 560.89L632.84 556.94L639.64 553.25L646.59 549.81L653.7 546.64L660.94 543.74L668.33 541.11L675.84 538.77L683.48 536.73L691.23 534.98L699.09 533.53L707.06 532.39L715.12 531.57L723.28 531.08L731.52 530.91L739.75 531.08L747.91 531.57L755.97 532.39L763.94 533.53L771.8 534.98L779.55 536.73L787.19 538.77L794.7 541.11L802.09 543.74L809.33 546.64L816.44 549.81L823.39 553.25L830.19 556.94L836.83 560.89L843.3 565.09L849.6 569.52L855.72 574.18L861.64 579.08L867.38 584.19L872.91 589.52L878.23 595.05L883.35 600.78L888.24 606.71L892.91 612.82L897.34 619.12L901.53 625.59L905.48 632.23L909.18 639.03L912.62 645.99L915.79 653.09L918.69 660.34L921.31 667.72L923.65 675.23L925.7 682.87L927.45 690.62L928.9 698.49L930.03 706.45L930.85 714.52L931.35 722.67L931.52 730.91L931.52 730.91L931.35 739.15Z" id="b2sLMcZB0M"></path><path d="M744.02 649.66L744.02 724.66L758.64 724.66L731.52 751.78L704.39 724.66L719.02 724.66L719.02 649.66L744.02 649.66M694.02 624.66L694.02 699.66L644.02 699.66L731.52 787.16L819.02 699.66L769.02 699.66L769.02 624.66L694.02 624.66ZM644.02 812.16L644.02 837.16L819.02 837.16L819.02 812.16L644.02 812.16Z" id="f1fazwXt3J"></path></defs><g><g><g><use xlink:href="#ah32Q11Fy" opacity="1" fill="#000000" fill-opacity="1"></use><g><use xlink:href="#ah32Q11Fy" opacity="1" fill-opacity="0" stroke="#000000" stroke-width="1" stroke-opacity="0"></use></g></g><g><use xlink:href="#auJmu7PLa" opacity="1" fill="#000000" fill-opacity="0"></use><g><use xlink:href="#auJmu7PLa" opacity="1" fill-opacity="0" stroke="#000000" stroke-width="1" stroke-opacity="0"></use></g></g><g><use xlink:href="#b2sLMcZB0M" opacity="1" fill="#429ea6" fill-opacity="1"></use></g><g><use xlink:href="#f1fazwXt3J" opacity="1" fill="#ffffff" fill-opacity="1"></use><g><use xlink:href="#f1fazwXt3J" opacity="1" fill-opacity="0" stroke="#000000" stroke-width="1" stroke-opacity="0"></use></g></g></g></g></svg>